<?xml version="1.0" encoding="UTF-8" standalone="no"?>
<!-- Created with Inkscape (http://www.inkscape.org/) -->

<svg
   width="58.335567mm"
   height="37.802631mm"
   viewBox="0 0 58.335567 37.802631"
   version="1.1"
   id="svg2584"
   sodipodi:docname="close.svg"
   inkscape:version="1.1.2 (0a00cf5339, 2022-02-04)"
   xmlns:inkscape="http://www.inkscape.org/namespaces/inkscape"
   xmlns:sodipodi="http://sodipodi.sourceforge.net/DTD/sodipodi-0.dtd"
   xmlns="http://www.w3.org/2000/svg"
   xmlns:svg="http://www.w3.org/2000/svg">
  <sodipodi:namedview
     id="namedview2586"
     pagecolor="#505050"
     bordercolor="#eeeeee"
     borderopacity="1"
     inkscape:pageshadow="0"
     inkscape:pageopacity="0"
     inkscape:pagecheckerboard="0"
     inkscape:document-units="mm"
     showgrid="false"
     inkscape:zoom="1.5554293"
     inkscape:cx="-84.542577"
     inkscape:cy="86.792759"
     inkscape:window-width="2496"
     inkscape:window-height="1371"
     inkscape:window-x="64"
     inkscape:window-y="32"
     inkscape:window-maximized="1"
     inkscape:current-layer="layer1" />
  <defs
     id="defs2581">
    <inkscape:path-effect
       effect="simplify"
       id="path-effect3166"
       is_visible="true"
       lpeversion="1"
       steps="1"
       threshold="0.00108696"
       smooth_angles="360"
       helper_size="0"
       simplify_individual_paths="false"
       simplify_just_coalesce="false" />
    <inkscape:path-effect
       effect="simplify"
       id="path-effect3162"
       is_visible="true"
       lpeversion="1"
       steps="1"
       threshold="0.00108696"
       smooth_angles="360"
       helper_size="0"
       simplify_individual_paths="false"
       simplify_just_coalesce="false" />
    <inkscape:path-effect
       effect="simplify"
       id="path-effect3158"
       is_visible="true"
       lpeversion="1"
       steps="1"
       threshold="0.00108696"
       smooth_angles="360"
       helper_size="0"
       simplify_individual_paths="false"
       simplify_just_coalesce="false" />
    <inkscape:path-effect
       effect="simplify"
       id="path-effect3154"
       is_visible="true"
       lpeversion="1"
       steps="1"
       threshold="0.00108696"
       smooth_angles="360"
       helper_size="0"
       simplify_individual_paths="false"
       simplify_just_coalesce="false" />
    <inkscape:path-effect
       effect="simplify"
       id="path-effect3150"
       is_visible="true"
       lpeversion="1"
       steps="1"
       threshold="0.00108696"
       smooth_angles="360"
       helper_size="0"
       simplify_individual_paths="false"
       simplify_just_coalesce="false" />
    <inkscape:path-effect
       effect="simplify"
       id="path-effect2687"
       is_visible="true"
       lpeversion="1"
       steps="1"
       threshold="0.00108696"
       smooth_angles="360"
       helper_size="0"
       simplify_individual_paths="false"
       simplify_just_coalesce="false" />
    <inkscape:path-effect
       effect="simplify"
       id="path-effect2683"
       is_visible="true"
       lpeversion="1"
       steps="1"
       threshold="0.00108696"
       smooth_angles="360"
       helper_size="0"
       simplify_individual_paths="false"
       simplify_just_coalesce="false" />
    <inkscape:path-effect
       effect="simplify"
       id="path-effect2679"
       is_visible="true"
       lpeversion="1"
       steps="1"
       threshold="0.00108696"
       smooth_angles="360"
       helper_size="0"
       simplify_individual_paths="false"
       simplify_just_coalesce="false" />
    <inkscape:path-effect
       effect="simplify"
       id="path-effect2675"
       is_visible="true"
       lpeversion="1"
       steps="1"
       threshold="0.00108696"
       smooth_angles="360"
       helper_size="0"
       simplify_individual_paths="false"
       simplify_just_coalesce="false" />
    <inkscape:path-effect
       effect="simplify"
       id="path-effect2671"
       is_visible="true"
       lpeversion="1"
       steps="1"
       threshold="0.00108696"
       smooth_angles="360"
       helper_size="0"
       simplify_individual_paths="false"
       simplify_just_coalesce="false" />
    <inkscape:path-effect
       effect="simplify"
       id="path-effect2667"
       is_visible="true"
       lpeversion="1"
       steps="1"
       threshold="0.00108696"
       smooth_angles="360"
       helper_size="0"
       simplify_individual_paths="false"
       simplify_just_coalesce="false" />
    <inkscape:path-effect
       effect="simplify"
       id="path-effect2663"
       is_visible="true"
       lpeversion="1"
       steps="1"
       threshold="0.00108696"
       smooth_angles="360"
       helper_size="0"
       simplify_individual_paths="false"
       simplify_just_coalesce="false" />
    <inkscape:path-effect
       effect="simplify"
       id="path-effect2659"
       is_visible="true"
       lpeversion="1"
       steps="1"
       threshold="0.00108696"
       smooth_angles="360"
       helper_size="0"
       simplify_individual_paths="false"
       simplify_just_coalesce="false" />
    <inkscape:path-effect
       effect="simplify"
       id="path-effect2655"
       is_visible="true"
       lpeversion="1"
       steps="1"
       threshold="0.00108696"
       smooth_angles="360"
       helper_size="0"
       simplify_individual_paths="false"
       simplify_just_coalesce="false" />
    <inkscape:path-effect
       effect="simplify"
       id="path-effect2651"
       is_visible="true"
       lpeversion="1"
       steps="1"
       threshold="0.00108696"
       smooth_angles="360"
       helper_size="0"
       simplify_individual_paths="false"
       simplify_just_coalesce="false" />
    <inkscape:path-effect
       effect="simplify"
       id="path-effect2647"
       is_visible="true"
       lpeversion="1"
       steps="1"
       threshold="0.00108696"
       smooth_angles="360"
       helper_size="0"
       simplify_individual_paths="false"
       simplify_just_coalesce="false" />
    <inkscape:path-effect
       effect="simplify"
       id="path-effect2643"
       is_visible="true"
       lpeversion="1"
       steps="1"
       threshold="0.00108696"
       smooth_angles="360"
       helper_size="0"
       simplify_individual_paths="false"
       simplify_just_coalesce="false" />
    <inkscape:path-effect
       effect="simplify"
       id="path-effect2639"
       is_visible="true"
       lpeversion="1"
       steps="1"
       threshold="0.00108696"
       smooth_angles="360"
       helper_size="0"
       simplify_individual_paths="false"
       simplify_just_coalesce="false" />
    <inkscape:path-effect
       effect="simplify"
       id="path-effect2635"
       is_visible="true"
       lpeversion="1"
       steps="1"
       threshold="0.00108696"
       smooth_angles="360"
       helper_size="0"
       simplify_individual_paths="false"
       simplify_just_coalesce="false" />
    <inkscape:path-effect
       effect="simplify"
       id="path-effect2631"
       is_visible="true"
       lpeversion="1"
       steps="1"
       threshold="0.00108696"
       smooth_angles="360"
       helper_size="0"
       simplify_individual_paths="false"
       simplify_just_coalesce="false" />
    <inkscape:path-effect
       effect="simplify"
       id="path-effect2627"
       is_visible="true"
       lpeversion="1"
       steps="1"
       threshold="0.00108696"
       smooth_angles="360"
       helper_size="0"
       simplify_individual_paths="false"
       simplify_just_coalesce="false" />
    <inkscape:path-effect
       effect="simplify"
       id="path-effect2623"
       is_visible="true"
       lpeversion="1"
       steps="1"
       threshold="0.00108696"
       smooth_angles="360"
       helper_size="0"
       simplify_individual_paths="false"
       simplify_just_coalesce="false" />
  </defs>
  <g
     inkscape:label="Layer 1"
     inkscape:groupmode="layer"
     id="layer1"
     transform="translate(-42.59289,-94.863584)">
    <path
       style="fill:none;stroke:#000;stroke-width:0.264583px;stroke-linecap:butt;stroke-linejoin:miter;stroke-opacity:1"
       d="m 51.064151,95.435382 c -1.318153,-0.35754 -2.706002,-0.5588 -4.068041,-0.362792 -1.000906,0.144038 -1.978344,0.549425 -2.729787,1.238384 -0.768004,0.704143 -1.24668,1.683694 -1.434583,2.701219 -0.256324,1.388037 -0.03365,2.835977 0.494784,4.134787 0.457262,1.12389 1.109606,2.19352 2.014532,3.00235 0.430765,0.38502 0.965885,0.60342 1.432083,0.94974 0.07919,0.0588 0.18548,0.0322 0.275813,0.0219 0.129,-0.0147 0.271686,-0.0879 0.390491,-0.0279 0.521695,0.26385 1.112539,0.41315 1.700009,0.35409 0.643588,-0.0647 1.228784,-0.37955 1.750433,-0.74622 0.549635,-0.38634 1.032888,-0.86163 1.599833,-1.22342 0.167659,-0.10699 0.343881,-0.203 0.53257,-0.2675"
       id="path2625"
       inkscape:path-effect="#path-effect2627"
       inkscape:original-d="m 51.064151,95.435382 c -9.066961,-2.479598 -10.319609,6.120538 -5.783214,10.656928 0.416493,0.4165 1.075708,0.59027 1.492202,1.00676 0.107897,0.1079 0.538787,-0.0708 0.68041,0 2.659208,1.3296 4.107053,-1.39113 5.568739,-1.88897" />
    <path
       style="fill:none;stroke:#000;stroke-width:0.264583px;stroke-linecap:butt;stroke-linejoin:miter;stroke-opacity:1"
       d="m 55.851332,95.231309 c 1.49e-4,3.235314 -0.03659,6.470841 2.24e-4,9.705941 0.0079,0.69198 0.06487,1.38504 0.193598,2.0648 0.04038,0.21324 0.109565,0.41998 0.151998,0.63353 0.0081,0.0408 0.03575,0.0873 0.07695,0.0282 0.548076,-0.78692 1.147323,-1.53888 1.79685,-2.24417 0.537844,-0.58402 1.101969,-1.15163 1.747527,-1.61691 0.131961,-0.0951 0.267544,-0.18534 0.407944,-0.26754"
       id="path2633"
       inkscape:path-effect="#path-effect2635"
       inkscape:original-d="m 55.851332,95.231309 c 0,0.824859 0,1.649722 0,2.474581 0,2.38935 0,4.7787 0,7.16804 0,1.34693 0.308951,2.9556 0.404077,2.81699 0.789961,-1.15099 2.548167,-3.32322 3.971012,-4.15578" />
    <path
       style="fill:none;stroke:#000;stroke-width:0.264583px;stroke-linecap:butt;stroke-linejoin:miter;stroke-opacity:1"
       d="m 63.017235,95.508555 c -0.279197,1.244611 -0.470432,2.510964 -0.529068,3.785794 -0.04819,1.047671 -0.05842,2.103671 0.101283,3.142301 0.109298,0.7108 0.282575,1.42988 0.658221,2.05107 0.248747,0.41134 0.623566,0.76878 1.095095,0.90444 0.487406,0.14023 1.012038,0.0255 1.456308,-0.19643 0.682198,-0.34082 1.243055,-0.88627 1.695872,-1.49173 0.780564,-1.04369 1.290241,-2.29256 1.44627,-3.58752 0.134165,-1.113493 -0.02985,-2.272136 -0.535995,-3.278652 -0.270135,-0.537193 -0.606368,-1.05408 -1.055122,-1.454364 -0.26421,-0.235673 -0.624062,-0.325533 -0.969008,-0.349193 -0.561,-0.03848 -1.120416,0.05474 -1.669617,0.159695 -0.485238,0.09273 -0.963567,0.223156 -1.453225,0.29098 -0.07997,0.01108 -0.160323,0.02007 -0.241014,0.02361 z"
       id="path2641"
       inkscape:path-effect="#path-effect2643"
       inkscape:original-d="m 63.017235,95.508555 c -0.380375,1.709264 -0.55763,3.218672 -0.55763,4.955805 0,11.32381 10.395749,0.60858 4.945946,-5.027576 -0.915895,-0.947214 -3.413133,0.0299 -4.388316,0.07177 z" />
    <path
       style="fill:none;stroke:#000;stroke-width:0.264583px;stroke-linecap:butt;stroke-linejoin:miter;stroke-opacity:1"
       d="m 76.3266,96.448524 c -0.476835,-0.398418 -1.044823,-0.70746 -1.664973,-0.804695 -0.562851,-0.08825 -1.137984,0.01705 -1.66924,0.208063 -0.469226,0.168707 -0.918298,0.388097 -1.358625,0.620255 -0.247095,0.130278 -0.468726,0.345996 -0.530258,0.627479 -0.06984,0.319493 0.03898,0.647043 0.185723,0.928001 0.268667,0.514412 0.651623,0.958614 1.052618,1.37346 0.914447,0.946033 1.95854,1.751193 2.973523,2.584183 0.23847,0.19571 0.476319,0.39994 0.644922,0.66316 0.21147,0.33014 0.280303,0.73784 0.223395,1.12331 -0.0782,0.52971 -0.334229,1.01493 -0.636483,1.44949 -0.35286,0.50732 -0.765613,0.97355 -1.227604,1.38235 -0.239776,0.21217 -0.57248,0.28307 -0.885274,0.26401 -0.482668,-0.0294 -0.942591,-0.20485 -1.375204,-0.41026 -0.660044,-0.3134 -1.260609,-0.73284 -1.872605,-1.12877 -0.0579,-0.0375 -0.115401,-0.076 -0.176697,-0.10775"
       id="path2653"
       inkscape:path-effect="#path-effect2655"
       inkscape:original-d="m 76.3266,96.448524 c -1.777654,-1.475753 -3.277355,-0.685353 -4.637035,-0.0055 -2.444022,1.22201 3.222355,5.090776 4.000558,5.868976 1.549527,1.54953 -0.861277,3.80349 -1.329552,4.25416 -1.146429,1.10332 -3.932793,-1.13697 -4.350753,-1.34535" />
    <path
       style="fill:none;stroke:#000;stroke-width:0.264583px;stroke-linecap:butt;stroke-linejoin:miter;stroke-opacity:1"
       d="m 79.652745,95.550095 c 0.11114,0.31694 0.134915,0.656624 0.147572,0.989395 0.03498,0.919618 -0.01947,1.839735 -0.07769,2.757221 -0.115279,1.816699 -0.310056,3.629259 -0.355937,5.449549 -0.01637,0.64947 -0.04988,1.30571 0.05274,1.9488 0.03625,0.22717 0.111303,0.44562 0.202008,0.66196 0.03641,0.0868 0.129743,0.0256 0.184556,-0.003 0.314952,-0.1637 0.609665,-0.36321 0.903874,-0.56085 1.16012,-0.77931 2.274524,-1.62501 3.438502,-2.3983 0.117799,-0.0783 0.233431,-0.16085 0.357674,-0.22876"
       id="path2661"
       inkscape:path-effect="#path-effect2663"
       inkscape:original-d="m 79.652745,95.550095 c 0.638961,1.683673 -0.919458,10.822415 0,11.846235 0.145272,0.16176 4.418574,-3.01132 4.853295,-3.23007" />
    <path
       style="fill:none;stroke:#000;stroke-width:0.264583px;stroke-linecap:butt;stroke-linejoin:miter;stroke-opacity:1"
       d="m 79.619252,101.14568 c 0.357727,0.0381 0.718937,0.0316 1.076812,-0.001 0.473353,-0.0437 0.942432,-0.12729 1.417235,-0.15672 0.124224,-0.008 0.248675,-0.0119 0.373142,-0.0119"
       id="path2665"
       inkscape:path-effect="#path-effect2667"
       inkscape:original-d="m 79.619252,101.14568 c 1.074404,0.11218 1.843156,-0.1701 2.867189,-0.1701" />
    <path
       style="fill:none;stroke:#000;stroke-width:0.264583px;stroke-linecap:butt;stroke-linejoin:miter;stroke-opacity:1"
       d="m 79.652743,95.550095 c 0.451254,-0.079 0.913785,-0.06083 1.36592,0.002 0.61103,0.08487 1.206587,0.253844 1.816587,0.344381 0.223526,0.03318 0.449128,0.05526 0.675276,0.05527"
       id="path2669"
       inkscape:path-effect="#path-effect2671"
       inkscape:original-d="m 79.652743,95.550095 c 1.373288,-0.237808 2.642071,0.401618 3.857783,0.401618" />
    <path
       style="fill:none;stroke:#000;stroke-width:0.264583px;stroke-linecap:butt;stroke-linejoin:miter;stroke-opacity:1"
       d="m 91.972055,103.18078 c 1.199012,1.70025 2.33824,3.44142 3.472531,5.18519 1.05029,1.61463 2.12147,3.21908 3.318365,4.73016 0.235358,0.29714 0.474987,0.5909 0.718682,0.88124"
       id="path2681"
       inkscape:path-effect="#path-effect2683"
       inkscape:original-d="m 91.972055,103.18078 c 3.365574,4.78766 4.72422,7.47796 7.509578,10.79659" />
    <path
       style="fill:none;stroke:#000;stroke-width:0.264583px;stroke-linecap:butt;stroke-linejoin:miter;stroke-opacity:1"
       d="m 100.86926,104.55108 c -1.721339,0.86132 -3.333358,1.92066 -4.910732,3.01937 -1.624167,1.1313 -3.217036,2.32139 -4.964123,3.26082 -0.356753,0.19183 -0.719499,0.37264 -1.088672,0.53937"
       id="path2685"
       inkscape:path-effect="#path-effect2687"
       inkscape:original-d="m 100.86926,104.55108 c -4.416881,2.21923 -7.32372,5.17555 -10.963527,6.81956" />
    <path
       style="fill:none;stroke:#000;stroke-width:0.264583px;stroke-linecap:butt;stroke-linejoin:miter;stroke-opacity:1"
       d="m 69.999229,112.21342 c -0.392491,3.94655 -0.21266,7.91943 0.0082,11.87048 0.157863,2.82369 0.336815,5.64842 0.336938,8.47772"
       id="path3152"
       inkscape:path-effect="#path-effect3154"
       inkscape:original-d="m 69.999229,112.21342 c -0.676783,6.82667 0.345168,13.59794 0.345168,20.3482" />
    <path
       style="fill:none;stroke:#000;stroke-width:0.264583px;stroke-linecap:butt;stroke-linejoin:miter;stroke-opacity:1"
       d="m 70.344365,132.56162 c 0.527967,-0.56442 0.93728,-1.22917 1.268331,-1.92531 0.343798,-0.72295 0.595998,-1.48457 0.919456,-2.2162 0.241674,-0.54664 0.534382,-1.0826 0.956867,-1.512 0.182731,-0.18572 0.388224,-0.349 0.61077,-0.48453"
       id="path3156"
       inkscape:path-effect="#path-effect3158"
       inkscape:original-d="m 70.344365,132.56162 c 2.022226,-2.17388 1.778408,-4.93189 3.755424,-6.13804" />
    <path
       style="fill:none;stroke:#000;stroke-width:0.264583px;stroke-linecap:butt;stroke-linejoin:miter;stroke-opacity:1"
       d="m 70.344365,132.56162 c -0.664043,-0.51422 -1.228594,-1.14554 -1.723021,-1.8222 -0.540003,-0.73904 -0.990997,-1.53779 -1.517546,-2.28596 -0.397062,-0.56418 -0.851572,-1.09886 -1.414067,-1.50501 -0.04428,-0.032 -0.08914,-0.0631 -0.13457,-0.0934"
       id="path3164"
       inkscape:path-effect="#path-effect3166"
       inkscape:original-d="m 70.344365,132.56162 c -2.347153,-1.8269 -2.841874,-4.40727 -4.789204,-5.70661" />
  </g>
</svg>
