<?xml version="1.0" encoding="UTF-8" standalone="no"?>
<!-- Created with Inkscape (http://www.inkscape.org/) -->

<svg
   width="31.507444mm"
   height="67.61338mm"
   viewBox="0 0 31.507444 67.61338"
   version="1.1"
   id="svg5"
   inkscape:version="1.1.2 (0a00cf5339, 2022-02-04)"
   sodipodi:docname="drawing.svg"
   xmlns:inkscape="http://www.inkscape.org/namespaces/inkscape"
   xmlns:sodipodi="http://sodipodi.sourceforge.net/DTD/sodipodi-0.dtd"
   xmlns="http://www.w3.org/2000/svg"
   xmlns:svg="http://www.w3.org/2000/svg">
  <sodipodi:namedview
     id="namedview7"
     pagecolor="#505050"
     bordercolor="#eeeeee"
     borderopacity="1"
     inkscape:pageshadow="0"
     inkscape:pageopacity="0"
     inkscape:pagecheckerboard="0"
     inkscape:document-units="mm"
     showgrid="false"
     inkscape:zoom="1.5554293"
     inkscape:cx="89.685851"
     inkscape:cy="151.7266"
     inkscape:window-width="2496"
     inkscape:window-height="1371"
     inkscape:window-x="64"
     inkscape:window-y="32"
     inkscape:window-maximized="1"
     inkscape:current-layer="layer1" />
  <defs
     id="defs2">
    <inkscape:path-effect
       effect="simplify"
       id="path-effect1063"
       is_visible="true"
       lpeversion="1"
       steps="1"
       threshold="0.000793651"
       smooth_angles="360"
       helper_size="0"
       simplify_individual_paths="false"
       simplify_just_coalesce="false" />
    <inkscape:path-effect
       effect="simplify"
       id="path-effect1059"
       is_visible="true"
       lpeversion="1"
       steps="1"
       threshold="0.000793651"
       smooth_angles="360"
       helper_size="0"
       simplify_individual_paths="false"
       simplify_just_coalesce="false" />
    <inkscape:path-effect
       effect="simplify"
       id="path-effect1055"
       is_visible="true"
       lpeversion="1"
       steps="1"
       threshold="0.000793651"
       smooth_angles="360"
       helper_size="0"
       simplify_individual_paths="false"
       simplify_just_coalesce="false" />
    <inkscape:path-effect
       effect="simplify"
       id="path-effect1051"
       is_visible="true"
       lpeversion="1"
       steps="1"
       threshold="0.000793651"
       smooth_angles="360"
       helper_size="0"
       simplify_individual_paths="false"
       simplify_just_coalesce="false" />
    <inkscape:path-effect
       effect="simplify"
       id="path-effect1047"
       is_visible="true"
       lpeversion="1"
       steps="1"
       threshold="0.000793651"
       smooth_angles="360"
       helper_size="0"
       simplify_individual_paths="false"
       simplify_just_coalesce="false" />
    <inkscape:path-effect
       effect="simplify"
       id="path-effect1043"
       is_visible="true"
       lpeversion="1"
       steps="1"
       threshold="0.000793651"
       smooth_angles="360"
       helper_size="0"
       simplify_individual_paths="false"
       simplify_just_coalesce="false" />
    <inkscape:path-effect
       effect="simplify"
       id="path-effect1039"
       is_visible="true"
       lpeversion="1"
       steps="1"
       threshold="0.000793651"
       smooth_angles="360"
       helper_size="0"
       simplify_individual_paths="false"
       simplify_just_coalesce="false" />
    <inkscape:path-effect
       effect="simplify"
       id="path-effect1035"
       is_visible="true"
       lpeversion="1"
       steps="1"
       threshold="0.000793651"
       smooth_angles="360"
       helper_size="0"
       simplify_individual_paths="false"
       simplify_just_coalesce="false" />
    <inkscape:path-effect
       effect="simplify"
       id="path-effect1031"
       is_visible="true"
       lpeversion="1"
       steps="1"
       threshold="0.000793651"
       smooth_angles="360"
       helper_size="0"
       simplify_individual_paths="false"
       simplify_just_coalesce="false" />
    <inkscape:path-effect
       effect="simplify"
       id="path-effect1027"
       is_visible="true"
       lpeversion="1"
       steps="1"
       threshold="0.000793651"
       smooth_angles="360"
       helper_size="0"
       simplify_individual_paths="false"
       simplify_just_coalesce="false" />
    <inkscape:path-effect
       effect="simplify"
       id="path-effect805"
       is_visible="true"
       lpeversion="1"
       steps="1"
       threshold="0.000793651"
       smooth_angles="360"
       helper_size="0"
       simplify_individual_paths="false"
       simplify_just_coalesce="false" />
    <inkscape:path-effect
       effect="simplify"
       id="path-effect702"
       is_visible="true"
       lpeversion="1"
       steps="1"
       threshold="0.000793651"
       smooth_angles="360"
       helper_size="0"
       simplify_individual_paths="false"
       simplify_just_coalesce="false" />
    <inkscape:path-effect
       effect="simplify"
       id="path-effect698"
       is_visible="true"
       lpeversion="1"
       steps="1"
       threshold="0.000793651"
       smooth_angles="360"
       helper_size="0"
       simplify_individual_paths="false"
       simplify_just_coalesce="false" />
    <inkscape:path-effect
       effect="simplify"
       id="path-effect694"
       is_visible="true"
       lpeversion="1"
       steps="1"
       threshold="0.000793651"
       smooth_angles="360"
       helper_size="0"
       simplify_individual_paths="false"
       simplify_just_coalesce="false" />
    <inkscape:path-effect
       effect="simplify"
       id="path-effect690"
       is_visible="true"
       lpeversion="1"
       steps="1"
       threshold="0.000793651"
       smooth_angles="360"
       helper_size="0"
       simplify_individual_paths="false"
       simplify_just_coalesce="false" />
    <inkscape:path-effect
       effect="simplify"
       id="path-effect684"
       is_visible="true"
       lpeversion="1"
       steps="1"
       threshold="0.000793651"
       smooth_angles="360"
       helper_size="0"
       simplify_individual_paths="false"
       simplify_just_coalesce="false" />
    <inkscape:path-effect
       effect="simplify"
       id="path-effect680"
       is_visible="true"
       lpeversion="1"
       steps="1"
       threshold="0.000793651"
       smooth_angles="360"
       helper_size="0"
       simplify_individual_paths="false"
       simplify_just_coalesce="false" />
    <inkscape:path-effect
       effect="simplify"
       id="path-effect676"
       is_visible="true"
       lpeversion="1"
       steps="1"
       threshold="0.000793651"
       smooth_angles="360"
       helper_size="0"
       simplify_individual_paths="false"
       simplify_just_coalesce="false" />
    <inkscape:path-effect
       effect="simplify"
       id="path-effect672"
       is_visible="true"
       lpeversion="1"
       steps="1"
       threshold="0.000793651"
       smooth_angles="360"
       helper_size="0"
       simplify_individual_paths="false"
       simplify_just_coalesce="false" />
    <inkscape:path-effect
       effect="simplify"
       id="path-effect668"
       is_visible="true"
       lpeversion="1"
       steps="1"
       threshold="0.000515464"
       smooth_angles="360"
       helper_size="0"
       simplify_individual_paths="false"
       simplify_just_coalesce="false" />
    <inkscape:path-effect
       effect="simplify"
       id="path-effect664"
       is_visible="true"
       lpeversion="1"
       steps="1"
       threshold="0.000515464"
       smooth_angles="360"
       helper_size="0"
       simplify_individual_paths="false"
       simplify_just_coalesce="false" />
    <inkscape:path-effect
       effect="simplify"
       id="path-effect660"
       is_visible="true"
       lpeversion="1"
       steps="1"
       threshold="0.000515464"
       smooth_angles="360"
       helper_size="0"
       simplify_individual_paths="false"
       simplify_just_coalesce="false" />
    <inkscape:path-effect
       effect="simplify"
       id="path-effect656"
       is_visible="true"
       lpeversion="1"
       steps="1"
       threshold="0.000515464"
       smooth_angles="360"
       helper_size="0"
       simplify_individual_paths="false"
       simplify_just_coalesce="false" />
    <inkscape:path-effect
       effect="simplify"
       id="path-effect652"
       is_visible="true"
       lpeversion="1"
       steps="1"
       threshold="0.000515464"
       smooth_angles="360"
       helper_size="0"
       simplify_individual_paths="false"
       simplify_just_coalesce="false" />
    <inkscape:path-effect
       effect="simplify"
       id="path-effect648"
       is_visible="true"
       lpeversion="1"
       steps="1"
       threshold="0.0002"
       smooth_angles="360"
       helper_size="0"
       simplify_individual_paths="false"
       simplify_just_coalesce="false" />
    <inkscape:path-effect
       effect="simplify"
       id="path-effect644"
       is_visible="true"
       lpeversion="1"
       steps="1"
       threshold="0.0002"
       smooth_angles="360"
       helper_size="0"
       simplify_individual_paths="false"
       simplify_just_coalesce="false" />
    <inkscape:path-effect
       effect="simplify"
       id="path-effect640"
       is_visible="true"
       lpeversion="1"
       steps="1"
       threshold="0.0002"
       smooth_angles="360"
       helper_size="0"
       simplify_individual_paths="false"
       simplify_just_coalesce="false" />
    <inkscape:path-effect
       effect="simplify"
       id="path-effect636"
       is_visible="true"
       lpeversion="1"
       steps="1"
       threshold="0.0002"
       smooth_angles="360"
       helper_size="0"
       simplify_individual_paths="false"
       simplify_just_coalesce="false" />
    <inkscape:path-effect
       effect="simplify"
       id="path-effect632"
       is_visible="true"
       lpeversion="1"
       steps="1"
       threshold="0.0002"
       smooth_angles="360"
       helper_size="0"
       simplify_individual_paths="false"
       simplify_just_coalesce="false" />
    <inkscape:path-effect
       effect="simplify"
       id="path-effect628"
       is_visible="true"
       lpeversion="1"
       steps="1"
       threshold="0.0002"
       smooth_angles="360"
       helper_size="0"
       simplify_individual_paths="false"
       simplify_just_coalesce="false" />
    <inkscape:path-effect
       effect="simplify"
       id="path-effect393"
       is_visible="true"
       lpeversion="1"
       steps="1"
       threshold="0.0002"
       smooth_angles="360"
       helper_size="0"
       simplify_individual_paths="false"
       simplify_just_coalesce="false" />
    <inkscape:path-effect
       effect="simplify"
       id="path-effect323"
       is_visible="true"
       lpeversion="1"
       steps="1"
       threshold="0.0002"
       smooth_angles="360"
       helper_size="0"
       simplify_individual_paths="false"
       simplify_just_coalesce="false" />
    <inkscape:path-effect
       effect="simplify"
       id="path-effect154"
       is_visible="true"
       lpeversion="1"
       steps="1"
       threshold="0.0002"
       smooth_angles="360"
       helper_size="0"
       simplify_individual_paths="false"
       simplify_just_coalesce="false" />
    <inkscape:path-effect
       effect="simplify"
       id="path-effect117"
       is_visible="true"
       lpeversion="1"
       steps="1"
       threshold="0.0002"
       smooth_angles="360"
       helper_size="0"
       simplify_individual_paths="false"
       simplify_just_coalesce="false" />
    <inkscape:path-effect
       effect="simplify"
       id="path-effect113"
       is_visible="true"
       lpeversion="1"
       steps="1"
       threshold="0.0002"
       smooth_angles="360"
       helper_size="0"
       simplify_individual_paths="false"
       simplify_just_coalesce="false" />
    <inkscape:path-effect
       effect="simplify"
       id="path-effect109"
       is_visible="true"
       lpeversion="1"
       steps="1"
       threshold="0.0002"
       smooth_angles="360"
       helper_size="0"
       simplify_individual_paths="false"
       simplify_just_coalesce="false" />
    <inkscape:path-effect
       effect="simplify"
       id="path-effect105"
       is_visible="true"
       lpeversion="1"
       steps="1"
       threshold="0.0002"
       smooth_angles="360"
       helper_size="0"
       simplify_individual_paths="false"
       simplify_just_coalesce="false" />
    <inkscape:path-effect
       effect="simplify"
       id="path-effect101"
       is_visible="true"
       lpeversion="1"
       steps="1"
       threshold="0.0002"
       smooth_angles="360"
       helper_size="0"
       simplify_individual_paths="false"
       simplify_just_coalesce="false" />
    <inkscape:path-effect
       effect="simplify"
       id="path-effect97"
       is_visible="true"
       lpeversion="1"
       steps="1"
       threshold="0.0002"
       smooth_angles="360"
       helper_size="0"
       simplify_individual_paths="false"
       simplify_just_coalesce="false" />
    <inkscape:path-effect
       effect="simplify"
       id="path-effect93"
       is_visible="true"
       lpeversion="1"
       steps="1"
       threshold="0.0002"
       smooth_angles="360"
       helper_size="0"
       simplify_individual_paths="false"
       simplify_just_coalesce="false" />
    <inkscape:path-effect
       effect="simplify"
       id="path-effect89"
       is_visible="true"
       lpeversion="1"
       steps="1"
       threshold="0.00172414"
       smooth_angles="360"
       helper_size="0"
       simplify_individual_paths="false"
       simplify_just_coalesce="false" />
    <inkscape:path-effect
       effect="simplify"
       id="path-effect85"
       is_visible="true"
       lpeversion="1"
       steps="1"
       threshold="0.00172414"
       smooth_angles="360"
       helper_size="0"
       simplify_individual_paths="false"
       simplify_just_coalesce="false" />
    <inkscape:path-effect
       effect="simplify"
       id="path-effect81"
       is_visible="true"
       lpeversion="1"
       steps="1"
       threshold="0.00172414"
       smooth_angles="360"
       helper_size="0"
       simplify_individual_paths="false"
       simplify_just_coalesce="false" />
    <inkscape:path-effect
       effect="simplify"
       id="path-effect77"
       is_visible="true"
       lpeversion="1"
       steps="1"
       threshold="0.00172414"
       smooth_angles="360"
       helper_size="0"
       simplify_individual_paths="false"
       simplify_just_coalesce="false" />
  </defs>
  <g
     inkscape:label="Layer 1"
     inkscape:groupmode="layer"
     id="layer1"
     transform="translate(-35.983276,-126.93396)">
    <path
       style="fill:none;stroke:#ffffff;stroke-width:0.264583px;stroke-linecap:butt;stroke-linejoin:miter;stroke-opacity:1"
       d="m 48.626892,146.40912 c -0.235288,5.67753 -0.773876,11.36092 -0.432004,17.04564 0.212466,3.53293 1.016689,6.99672 2.081007,10.38569 0.299472,0.95357 0.531024,1.9268 0.788949,2.89207 0.287392,1.07555 0.434722,2.20554 0.904421,3.21555 0.08291,0.17828 0.113681,0.40997 0.295997,0.52516 0.678358,0.42858 1.138659,1.10929 1.554358,1.77844 0.517946,0.83374 0.917661,1.74942 1.551486,2.50387 0.417796,0.49731 0.919437,0.91773 1.436932,1.30675 1.079964,0.81185 2.240869,1.5139 3.266389,2.39968 0.203905,0.17612 0.354934,0.4222 0.591317,0.55063 0.181495,0.0986 0.444385,-0.0152 0.586144,0.14284 0.335545,0.37409 0.756981,0.6583 1.175132,0.93073 1.109051,0.72257 2.258834,1.39464 3.47866,1.90929 0.450788,0.19019 0.904044,0.41643 1.395182,0.46137 0.02689,0.002 0.05388,0.004 0.08088,0.004"
       id="path674"
       inkscape:path-effect="#path-effect676"
       inkscape:original-d="m 48.626892,146.40912 c -0.383543,9.20364 -1.586508,19.05633 1.614662,27.33602 0.336785,0.87108 1.638591,6.50719 1.953974,6.6868 1.498656,0.85353 2.288429,3.46782 3.439187,4.61857 1.547635,1.54764 3.280137,2.2165 5.005998,3.94236 0.116957,0.11696 0.51045,0.0376 0.611175,0.16257 0.697076,0.86463 5.055221,3.30536 6.129856,3.30536" />
    <path
       style="fill:none;stroke:#ffffff;stroke-width:0.264583px;stroke-linecap:butt;stroke-linejoin:miter;stroke-opacity:1"
       d="m 67.381741,192.46083 c -0.885426,-1.28661 -1.754938,-2.58741 -2.514117,-3.95363 -0.547698,-0.98564 -1.024415,-2.01021 -1.432109,-3.06148 -0.07556,-0.19483 -0.148918,-0.39051 -0.220321,-0.5869"
       id="path682"
       inkscape:path-effect="#path-effect684"
       inkscape:original-d="m 67.381741,192.46083 c -2.086692,-3.02522 -3.187687,-4.90971 -4.166547,-7.60201" />
    <path
       style="fill:none;stroke:#ffffff;stroke-width:0.264583px;stroke-linecap:butt;stroke-linejoin:miter;stroke-opacity:1"
       d="m 67.381741,192.46083 c -0.145417,0.0708 -0.30335,0.11112 -0.459828,0.1487 -0.495333,0.11897 -0.997526,0.20629 -1.498572,0.29708 -0.971162,0.17598 -1.946463,0.3375 -2.903706,0.58005 -0.42773,0.10838 -0.857843,0.22062 -1.261504,0.40103 -0.180851,0.0808 -0.349432,0.18668 -0.50584,0.31118 -0.08844,0.0704 -0.203727,0.092 -0.312693,0.1076 -0.211678,0.0303 -0.429809,0.0234 -0.636149,0.0844 -0.03376,0.01 -0.06697,0.0221 -0.09864,0.0375"
       id="path700"
       inkscape:path-effect="#path-effect702"
       inkscape:original-d="m 67.381741,192.46083 c -0.740034,0.38354 -5.715807,0.8585 -6.614769,1.72493 -0.200424,0.19317 -0.763042,0.0966 -1.062159,0.24263" />
    <path
       style="fill:none;stroke:#ffffff;stroke-width:0.264583px;stroke-linecap:butt;stroke-linejoin:miter;stroke-opacity:1"
       d="m 38.524436,127.75213 c -0.461724,0.19287 -0.892594,0.45881 -1.276201,0.77928 -0.364316,0.30435 -0.696101,0.66029 -0.915146,1.08483 -0.138395,0.26823 -0.215665,0.56832 -0.214246,0.87188 0.0019,0.41658 -0.01302,0.83363 0.0089,1.24985 0.01375,0.26116 0.05334,0.52837 0.179828,0.76125 0.137973,0.25402 0.339933,0.46522 0.541124,0.66947 0.233071,0.23662 0.464445,0.47516 0.705487,0.70364 0.432765,0.41022 0.886428,0.79929 1.365181,1.15474 0.373491,0.2773 0.755746,0.55119 1.180957,0.74293 0.202741,0.0914 0.417988,0.17525 0.643706,0.17551 0.128103,1.5e-4 0.256417,-0.0523 0.340796,-0.15292 0.289804,-0.34561 0.627355,-0.64635 0.947631,-0.9627 0.364843,-0.36037 0.726332,-0.737 0.974155,-1.18976 0.141333,-0.25821 0.245639,-0.53556 0.330334,-0.81687 0.211316,-0.70188 0.242842,-1.45934 0.07056,-2.17368 -0.18889,-0.78318 -0.623672,-1.49555 -1.19678,-2.05755 -0.464714,-0.45571 -1.008689,-0.83883 -1.61131,-1.08296 -0.356315,-0.14435 -0.752748,-0.14852 -1.128193,-0.0949 -0.562865,0.0803 -1.102868,0.27235 -1.624171,0.49361 -0.459795,0.19515 -0.905222,0.42164 -1.351078,0.64624"
       id="path1025"
       inkscape:path-effect="#path-effect1027"
       inkscape:original-d="m 38.524436,127.75213 c -1.005297,0.41363 -2.405573,1.50239 -2.405573,2.68644 0,2.13243 -0.115813,1.88581 1.357193,3.35747 0.461235,0.46081 2.996296,2.73999 3.602025,2.0047 0.572857,-0.69539 1.607124,-1.41488 2.03295,-2.36933 1.108569,-2.48474 -0.141894,-4.83603 -2.455625,-5.89807 -1.182312,-0.5427 -3.17332,0.5276 -4.159448,1.02066" />
    <path
       style="fill:none;stroke:#ffffff;stroke-width:0.264583px;stroke-linecap:butt;stroke-linejoin:miter;stroke-opacity:1"
       d="m 45.955616,127.10176 c -0.142046,1.42165 -0.07364,2.85372 0.03731,4.27498 0.12146,1.55586 0.301564,3.11 0.302893,4.67254"
       id="path1029"
       inkscape:path-effect="#path-effect1031"
       inkscape:original-d="m 45.955616,127.10176 c -0.3014,3.02047 0.340207,6.05248 0.340207,8.94752" />
    <path
       style="fill:none;stroke:#ffffff;stroke-width:0.264583px;stroke-linecap:butt;stroke-linejoin:miter;stroke-opacity:1"
       d="m 46.358677,131.14468 c 0.122444,0.2453 0.28503,0.48045 0.514888,0.63676 0.173507,0.11799 0.388138,0.1711 0.596999,0.15121 0.278247,-0.0265 0.535618,-0.15787 0.756867,-0.3225 0.335103,-0.24935 0.61155,-0.57139 0.835322,-0.9222 0.222366,-0.34861 0.405182,-0.72819 0.495788,-1.13293 0.05502,-0.24576 0.08003,-0.50591 0.01664,-0.75269 -0.03789,-0.14752 -0.120328,-0.28176 -0.233011,-0.38552 -0.248888,-0.22918 -0.536667,-0.41231 -0.838196,-0.56406 -0.365007,-0.1837 -0.744538,-0.33596 -1.116778,-0.504 -0.165632,-0.0748 -0.327548,-0.15743 -0.492063,-0.2346 -0.108069,-0.0507 -0.234408,-0.0629 -0.349201,-0.0273 -0.144586,0.0448 -0.258381,0.15039 -0.365284,0.25345 -0.04638,0.0447 -0.08954,0.0935 -0.142904,0.13052 -0.04589,0.0318 -0.06981,-0.0298 -0.07526,-0.067 -0.01465,-0.0999 -0.0093,-0.20159 -0.0069,-0.30214"
       id="path1033"
       inkscape:path-effect="#path-effect1035"
       inkscape:original-d="m 46.358677,131.14468 c 1.249921,2.51778 4.106876,-1.68081 3.006881,-2.70628 -0.664326,-0.61932 -1.401913,-0.78761 -2.446361,-1.31275 -0.688843,-0.34635 -0.999964,0.9677 -0.963581,-0.0239" />
    <path
       style="fill:none;stroke:#ffffff;stroke-width:0.264583px;stroke-linecap:butt;stroke-linejoin:miter;stroke-opacity:1"
       d="m 54.464262,128.19028 c -0.117272,0.0836 -0.267254,0.10024 -0.407171,0.0956 -0.259781,-0.009 -0.513246,-0.072 -0.767484,-0.12043 -0.207856,-0.0396 -0.418953,-0.0834 -0.631461,-0.0681 -0.103205,0.007 -0.280112,-0.0111 -0.294271,0.0929 -0.0545,0.40049 -0.104214,0.80163 -0.152824,1.20288 -0.07613,0.62837 -0.1545,1.25659 -0.215443,1.88666 -0.01048,0.10835 -0.012,0.21732 -0.02143,0.32577 -0.02115,0.24316 -0.05824,0.4846 -0.08958,0.72658 -0.08232,0.63555 -0.167846,1.27311 -0.175255,1.91458 -0.0032,0.27463 -0.0075,0.55433 0.05982,0.82192 0.02803,0.11136 0.06573,0.22842 0.151684,0.30963 0.06191,0.0585 0.155352,0.0673 0.23425,0.0416 0.130578,-0.0426 0.216418,-0.1641 0.335884,-0.2266 0.07966,-0.0417 0.165934,-0.0691 0.250939,-0.0976 0.496352,-0.16639 0.998259,-0.31552 1.497995,-0.47127 0.399202,-0.12442 0.801794,-0.2393 1.194905,-0.382 0.05826,-0.0212 0.117036,-0.0415 0.173086,-0.0682"
       id="path1037"
       inkscape:path-effect="#path-effect1039"
       inkscape:original-d="m 54.464262,128.19028 c -0.461373,0.3324 -1.638531,-0.33174 -2.100387,0 -0.0042,0.003 -0.387829,3.0148 -0.387829,3.36956 0,0.44969 -0.862878,4.94081 0.508346,3.63838 0.100034,-0.095 2.810823,-0.86907 3.123507,-1.024" />
    <path
       style="fill:none;stroke:#ffffff;stroke-width:0.264583px;stroke-linecap:butt;stroke-linejoin:miter;stroke-opacity:1"
       d="m 51.590757,131.5441 c 0.847155,-0.0998 1.698982,-0.14998 2.549741,-0.21131 0.09086,-0.007 0.179348,-0.0338 0.270786,-0.0342"
       id="path1053"
       inkscape:path-effect="#path-effect1055"
       inkscape:original-d="m 51.590757,131.5441 c 0.844087,-0.0993 1.689534,-0.16786 2.541175,-0.21077 0.09119,-0.005 0.188185,-0.0347 0.279352,-0.0347" />
    <path
       style="fill:none;stroke:#ffffff;stroke-width:0.264583px;stroke-linecap:butt;stroke-linejoin:miter;stroke-opacity:1"
       d="m 57.28128,134.54381 c -0.03666,-0.0733 -0.03938,-0.16153 -0.0056,-0.23736 0.05359,-0.12047 0.175001,-0.20515 0.200944,-0.33745 0.116785,-0.59555 0.129357,-1.20436 0.155896,-1.80877 0.02603,-0.59289 0.06118,-1.19118 0.215357,-1.76717 0.167084,-0.62421 0.408897,-1.22899 0.520482,-1.8675 0.0332,-0.18997 0.07679,-0.38429 0.05134,-0.57554 -0.0028,-0.0211 0.0069,-0.0276 0.01177,-0.002 0.03084,0.15788 0.0509,0.31764 0.07741,0.47629 0.02259,0.13518 0.04996,0.26961 0.08967,0.4011 0.172213,0.57029 0.330824,1.14454 0.495423,1.71704 0.295507,1.02782 0.591413,2.05582 0.918783,3.07398 0.1128,0.35082 0.208748,0.70879 0.356276,1.04667 0.02682,0.0614 0.04008,0.13453 0.08938,0.1809 0.06505,0.0612 0.160044,0.0918 0.203231,0.17501 0.01345,0.0259 0.01636,0.11139 0.01532,0.0872 -0.0066,-0.15362 -0.008,-0.30911 0.0186,-0.46066 0.01152,-0.0656 0.0148,-0.14114 0.06175,-0.19071 0.06287,-0.0664 0.09659,-0.15387 0.126563,-0.23861 0.08095,-0.22886 0.136562,-0.46615 0.177657,-0.70508 0.02127,-0.12368 0.03243,-0.24864 0.04255,-0.37402 0.01308,-0.16207 0.07101,-0.3163 0.131962,-0.46562 0.04135,-0.10131 0.09776,-0.196 0.137301,-0.29791 0.07468,-0.19247 0.131494,-0.39134 0.188294,-0.58962 0.219171,-0.7651 0.424118,-1.53435 0.612919,-2.30746 0.06006,-0.24594 0.13126,-0.48975 0.174577,-0.73923 0.0021,-0.0122 0.0047,-0.0244 0.0053,-0.0368"
       id="path1061"
       inkscape:path-effect="#path-effect1063"
       inkscape:original-d="m 57.28128,134.54381 c -0.122055,-0.26062 0.157925,-0.38247 0.197316,-0.58421 0.217503,-1.11389 0.07149,-2.37861 0.34517,-3.47332 0.19784,-0.79136 0.59536,-1.69017 0.59536,-2.50606 0,-0.26259 0.08138,0.52053 0.157385,0.77188 0.157035,0.51933 0.299482,1.01644 0.450228,1.55323 0.207449,0.73871 1.261314,4.37134 1.431621,4.53825 0.07141,0.07 0.219699,0.10932 0.219699,0.24862 0,0.12696 -0.03199,-0.52709 0.08456,-0.64364 0.165716,-0.16572 0.340206,-1.05278 0.340206,-1.27577 0,-0.21465 0.137478,-0.53012 0.255154,-0.76547 0.16909,-0.33818 0.996407,-3.58758 0.996407,-3.7073" />
  </g>
</svg>
